<svg xmlns="http://www.w3.org/2000/svg" xmlns:xlink="http://www.w3.org/1999/xlink" viewBox="0 0 258.97 202.7"><defs><style>.cls-1{fill:#dfe8ef;}.cls-2,.cls-3,.cls-4,.cls-9{fill:none;stroke:#dfe8ef;stroke-linecap:round;stroke-linejoin:round;stroke-width:2px;}.cls-3{stroke-dasharray:5.25 6.3;}.cls-4{stroke-dasharray:4.72 5.67;}.cls-5{fill:url(#未命名的渐变_337);}.cls-6{fill:url(#未命名的渐变_337-2);}.cls-7{fill:url(#未命名的渐变_337-3);}.cls-8{fill:url(#未命名的渐变_337-4);}.cls-9{stroke-dasharray:5 6;}.cls-10{fill:url(#未命名的渐变_617);}.cls-11{fill:url(#未命名的渐变_168);}.cls-12{fill:url(#未命名的渐变_168-2);}.cls-13{fill:url(#未命名的渐变_617-2);}.cls-14{fill:url(#未命名的渐变_168-3);}.cls-15{fill:url(#未命名的渐变_617-3);}.cls-16{fill:url(#未命名的渐变_158);}.cls-17{fill:url(#未命名的渐变_617-4);}.cls-18{fill:url(#未命名的渐变_582);}.cls-19{font-size:18.64px;font-family:STYuanti-SC-Bold, Yuanti SC;font-weight:700;}.cls-19,.cls-40{fill:#fff;}.cls-20{fill:url(#未命名的渐变_582-2);}.cls-21{fill:url(#未命名的渐变_582-3);}.cls-22{fill:url(#未命名的渐变_594);}.cls-23{fill:url(#未命名的渐变_594-2);}.cls-24{fill:url(#未命名的渐变_231);}.cls-25{fill:url(#未命名的渐变_231-2);}.cls-26{fill:url(#未命名的渐变_231-3);}.cls-27{fill:url(#未命名的渐变_173);}.cls-28{fill:url(#未命名的渐变_191);}.cls-29{fill:url(#未命名的渐变_191-2);}.cls-30{fill:url(#未命名的渐变_191-3);}.cls-31{fill:url(#未命名的渐变_133);}.cls-32{fill:url(#未命名的渐变_255);}.cls-33{fill:url(#未命名的渐变_173-2);}.cls-34{fill:url(#未命名的渐变_173-3);}.cls-35{fill:url(#未命名的渐变_594-3);}.cls-36{fill:url(#未命名的渐变_594-5);}.cls-37{fill:url(#未命名的渐变_314);}.cls-38{fill:url(#未命名的渐变_314-4);}.cls-39{fill:url(#未命名的渐变_594-6);}</style><linearGradient id="未命名的渐变_337" x1="161.94" y1="170.82" x2="176.32" y2="170.82" gradientUnits="userSpaceOnUse"><stop offset="0" stop-color="#f4c4ff"/><stop offset="1" stop-color="#ffc9c9"/></linearGradient><linearGradient id="未命名的渐变_337-2" x1="161.94" y1="178.5" x2="194.1" y2="178.5" xlink:href="#未命名的渐变_337"/><linearGradient id="未命名的渐变_337-3" x1="-3764.22" y1="64.08" x2="-3747.68" y2="64.08" gradientTransform="matrix(1, 0, 0, -1, 3830.14, 128.15)" xlink:href="#未命名的渐变_337"/><linearGradient id="未命名的渐变_337-4" x1="-3764.22" y1="72.9" x2="-3727.24" y2="72.9" gradientTransform="matrix(1, 0, 0, -1, 3809.78, 145.8)" xlink:href="#未命名的渐变_337"/><linearGradient id="未命名的渐变_617" x1="129.48" y1="161.2" x2="129.48" y2="139.87" gradientUnits="userSpaceOnUse"><stop offset="0" stop-color="#95f0b6"/><stop offset="1" stop-color="#71d9ff"/></linearGradient><linearGradient id="未命名的渐变_168" x1="129.48" y1="159.43" x2="129.48" y2="141.53" gradientUnits="userSpaceOnUse"><stop offset="0" stop-color="#36b062"/><stop offset="1" stop-color="#43b4de"/></linearGradient><linearGradient id="未命名的渐变_168-2" x1="13.78" y1="159.43" x2="13.78" y2="141.53" xlink:href="#未命名的渐变_168"/><linearGradient id="未命名的渐变_617-2" x1="13.78" y1="161.2" x2="13.78" y2="139.87" xlink:href="#未命名的渐变_617"/><linearGradient id="未命名的渐变_168-3" x1="245.62" y1="159.43" x2="245.62" y2="141.53" xlink:href="#未命名的渐变_168"/><linearGradient id="未命名的渐变_617-3" x1="245.62" y1="161.2" x2="245.62" y2="139.87" xlink:href="#未命名的渐变_617"/><linearGradient id="未命名的渐变_158" x1="130.06" y1="172.25" x2="130.06" y2="69.92" gradientUnits="userSpaceOnUse"><stop offset="0" stop-color="#6ad992"/><stop offset="1" stop-color="#5cd3ff"/></linearGradient><linearGradient id="未命名的渐变_617-4" x1="130.06" y1="207.26" x2="130.06" y2="61.57" xlink:href="#未命名的渐变_617"/><linearGradient id="未命名的渐变_582" x1="46.97" y1="52.57" x2="46.97" y2="17.7" gradientUnits="userSpaceOnUse"><stop offset="0" stop-color="#77c94a"/><stop offset="1" stop-color="#f2f556"/></linearGradient><linearGradient id="未命名的渐变_582-2" x1="129.22" y1="52.57" x2="129.22" y2="17.7" xlink:href="#未命名的渐变_582"/><linearGradient id="未命名的渐变_582-3" x1="211.92" y1="52.57" x2="211.92" y2="17.7" xlink:href="#未命名的渐变_582"/><linearGradient id="未命名的渐变_594" x1="87.95" y1="42.53" x2="87.95" y2="17.47" gradientUnits="userSpaceOnUse"><stop offset="0" stop-color="#98e86d"/><stop offset="1" stop-color="#e4ff75"/></linearGradient><linearGradient id="未命名的渐变_594-2" x1="170.48" y1="42.53" x2="170.48" y2="17.47" xlink:href="#未命名的渐变_594"/><linearGradient id="未命名的渐变_231" x1="-4391.28" y1="6169.31" x2="-4391.28" y2="6153.79" gradientTransform="translate(6670.8 3835.08) rotate(83.79)" gradientUnits="userSpaceOnUse"><stop offset="0" stop-color="#63cf82"/><stop offset="1" stop-color="#8ae68d"/></linearGradient><linearGradient id="未命名的渐变_231-2" x1="-4406.5" y1="6169.31" x2="-4406.5" y2="6153.79" xlink:href="#未命名的渐变_231"/><linearGradient id="未命名的渐变_231-3" x1="-4398.89" y1="6169.31" x2="-4398.89" y2="6153.79" xlink:href="#未命名的渐变_231"/><linearGradient id="未命名的渐变_173" x1="-4398.89" y1="6214.8" x2="-4398.89" y2="6162.67" gradientTransform="translate(6670.8 3835.08) rotate(83.79)" gradientUnits="userSpaceOnUse"><stop offset="0" stop-color="#ff937d"/><stop offset="1" stop-color="#ffb469"/></linearGradient><linearGradient id="未命名的渐变_191" x1="-4404.76" y1="6213.62" x2="-4404.76" y2="6163.65" gradientTransform="translate(6670.8 3835.08) rotate(83.79)" gradientUnits="userSpaceOnUse"><stop offset="0" stop-color="#ffc2b5"/><stop offset="1" stop-color="#ffd1a3"/></linearGradient><linearGradient id="未命名的渐变_191-2" x1="-4393.59" y1="6213.62" x2="-4393.59" y2="6163.65" xlink:href="#未命名的渐变_191"/><linearGradient id="未命名的渐变_191-3" x1="-4403.39" y1="6213.62" x2="-4403.39" y2="6163.65" xlink:href="#未命名的渐变_191"/><linearGradient id="未命名的渐变_133" x1="227.07" y1="111.18" x2="227.07" y2="84.3" gradientUnits="userSpaceOnUse"><stop offset="0" stop-color="#e880ff"/><stop offset="0.03" stop-color="#ed9bfe"/><stop offset="1" stop-color="#ffc9c9"/></linearGradient><linearGradient id="未命名的渐变_255" x1="211.82" y1="139.95" x2="211.82" y2="98.87" gradientUnits="userSpaceOnUse"><stop offset="0" stop-color="#ffcec4"/><stop offset="1" stop-color="#ffefde"/></linearGradient><linearGradient id="未命名的渐变_173-2" x1="211.78" y1="139.95" x2="211.78" y2="98.87" gradientTransform="matrix(1, 0, 0, 1, 0, 0)" xlink:href="#未命名的渐变_173"/><linearGradient id="未命名的渐变_173-3" x1="211.78" y1="155.86" x2="211.78" y2="105.73" gradientTransform="matrix(1, 0, 0, 1, 0, 0)" xlink:href="#未命名的渐变_173"/><linearGradient id="未命名的渐变_594-3" x1="122.72" y1="97.07" x2="122.72" y2="69.32" xlink:href="#未命名的渐变_594"/><linearGradient id="未命名的渐变_594-5" x1="129.96" y1="5644.74" x2="129.96" y2="5644.74" gradientTransform="matrix(1, 0, 0, -99.09, 0, 559425.33)" xlink:href="#未命名的渐变_594"/><linearGradient id="未命名的渐变_314" x1="149.51" y1="98.7" x2="149.51" y2="71.02" gradientUnits="userSpaceOnUse"><stop offset="0" stop-color="#b7ff8f"/><stop offset="1" stop-color="#f2ff9c"/></linearGradient><linearGradient id="未命名的渐变_314-4" x1="142.51" y1="98.7" x2="142.51" y2="71.02" xlink:href="#未命名的渐变_314"/><linearGradient id="未命名的渐变_594-6" x1="149.01" y1="117.66" x2="149.01" y2="104.03" xlink:href="#未命名的渐变_594"/></defs><title>IPO</title><g id="图层_2" data-name="图层 2"><g id="图层_1-2" data-name="图层 1"><circle class="cls-1" cx="66.81" cy="99.04" r="4.35"/><circle class="cls-1" cx="242.96" cy="45.2" r="4.35"/><line class="cls-2" x1="200.15" y1="1" x2="202.65" y2="1"/><path class="cls-3" d="M209,1h20.85a12.76,12.76,0,0,1,12.76,12.76V39"/><line class="cls-2" x1="242.57" y1="42.19" x2="242.57" y2="44.69"/><line class="cls-2" x1="61.97" y1="98.8" x2="59.47" y2="98.8"/><path class="cls-4" d="M53.8,98.8H51.71A12.76,12.76,0,0,0,39,111.56v16.59"/><line class="cls-2" x1="38.95" y1="130.99" x2="38.95" y2="133.49"/><rect class="cls-5" x="161.94" y="168.75" width="14.46" height="4.14" rx="2.07" ry="2.07"/><rect class="cls-6" x="161.94" y="176.43" width="32.17" height="4.14" rx="2.07" ry="2.07"/><rect class="cls-7" x="65.92" y="61.7" width="16.63" height="4.76" rx="2.38" ry="2.38" transform="translate(148.46 128.15) rotate(-180)"/><rect class="cls-8" x="45.56" y="70.52" width="36.98" height="4.76" rx="2.38" ry="2.38" transform="translate(128.11 145.8) rotate(180)"/><circle class="cls-9" cx="170.97" cy="152.7" r="49"/><circle class="cls-9" cx="122.97" cy="156.7" r="34"/><path class="cls-10" d="M248.34,161.16H10.55a10.55,10.55,0,1,1,0-21.09H248.42a10.55,10.55,0,1,1-.08,21.09Z"/><path class="cls-11" d="M248.34,159.46H10.55a8.85,8.85,0,1,1,0-17.69H248.42a8.85,8.85,0,1,1-.08,17.69Z"/><path class="cls-12" d="M10.29,151A3.49,3.49,0,1,0,12,148a3.47,3.47,0,0,0-1.74,3Z"/><path class="cls-13" d="M13.78,145.86A5.19,5.19,0,1,0,19,151,5.15,5.15,0,0,0,13.78,145.86Zm0,7A1.79,1.79,0,1,1,15.56,151,1.75,1.75,0,0,1,13.78,152.83Z"/><path class="cls-14" d="M242.13,151a3.49,3.49,0,1,0,3.49-3.48,3.49,3.49,0,0,0-3.49,3.48Z"/><path class="cls-15" d="M245.62,145.86A5.19,5.19,0,1,0,250.8,151,5.15,5.15,0,0,0,245.62,145.86Zm0,7A1.79,1.79,0,1,1,247.4,151,1.75,1.75,0,0,1,245.62,152.83Z"/><rect class="cls-16" x="89.48" y="69.92" width="81.16" height="70.42" rx="2.88" ry="2.88"/><rect class="cls-17" x="97.83" y="61.57" width="64.45" height="100.26" rx="3.19" ry="3.19"/><circle class="cls-18" cx="46.97" cy="29.7" r="12"/><text class="cls-19" transform="translate(44.72 35.64)">I</text><circle class="cls-20" cx="129.22" cy="29.7" r="12"/><text class="cls-19" transform="translate(124.15 35.64)">P</text><circle class="cls-21" cx="211.92" cy="29.7" r="12"/><text class="cls-19" transform="translate(205.43 35.64)">O</text><path class="cls-22" d="M102.08,30.19c-.06-.05-.13-.07-.19-.12l-4-4.06a1.51,1.51,0,0,0-2.13,2.13l1.57,1.56H74.9a1.5,1.5,0,1,0,0,3H97.46l-1.75,1.74a1.5,1.5,0,0,0,2.13,2.12l4-4.06a2,2,0,0,0,.19-.12,1.48,1.48,0,0,0,.43-1.09A1.51,1.51,0,0,0,102.08,30.19Z"/><path class="cls-23" d="M184.6,30.19c0-.05-.12-.07-.18-.12L180.36,26a1.5,1.5,0,0,0-2.12,2.13l1.56,1.56H157.42a1.5,1.5,0,1,0,0,3H180l-1.74,1.74a1.49,1.49,0,0,0,0,2.12,1.51,1.51,0,0,0,2.12,0l4.06-4.06a1.13,1.13,0,0,0,.18-.12,1.53,1.53,0,0,0,.44-1.09A1.56,1.56,0,0,0,184.6,30.19Z"/><path class="cls-24" d="M64.23,134l1.11-1.87a2.16,2.16,0,0,1,3-.76l5.61,3.32a2.18,2.18,0,0,1,.76,3l-1.11,1.87a2.15,2.15,0,0,1-3,.76L65,137a2.18,2.18,0,0,1-.76-3Z"/><path class="cls-25" d="M63.2,120.59,68,116.14a2.18,2.18,0,0,1,3.07.1l1.49,1.59a2.17,2.17,0,0,1-.11,3.07l-4.75,4.46a2.17,2.17,0,0,1-3.07-.11l-1.49-1.58a2.19,2.19,0,0,1,.1-3.08Z"/><path class="cls-26" d="M64.43,129.86l-.23-2.16a2.17,2.17,0,0,1,1.92-2.39l8.64-.94a2.17,2.17,0,0,1,2.39,1.92l.24,2.16a2.18,2.18,0,0,1-1.93,2.4l-8.63.94a2.17,2.17,0,0,1-2.4-1.93Z"/><path class="cls-27" d="M16.81,134c-.65-5.94,31.75-14.39,37.69-15l2.16-.24A10.87,10.87,0,0,1,59,140.29l-2.16.24c-5.94.64-39.39-.64-40-6.58Z"/><path class="cls-28" d="M51.24,129.11a1.1,1.1,0,0,1-1.2-1l-.89-8.21c.77-.17,1.48-.33,2.14-.46l.91,8.43a1.08,1.08,0,0,1-1,1.2Z"/><path class="cls-29" d="M44.83,140.47l-2.2-.12-.75-6.94a1.08,1.08,0,0,1,1-1.2,1.1,1.1,0,0,1,1.2,1Z"/><path class="cls-30" d="M34,131a1.09,1.09,0,0,1-1.2-1l-.57-5.25,2.11-.7.62,5.71a1.1,1.1,0,0,1-1,1.2Z"/><path class="cls-31" d="M217.57,87.67l0,23.51,4.65-.07.05-19.69a.18.18,0,0,1,.14-.17l14.2-2.59-.83-4.36"/><path class="cls-32" d="M211.22,109.31c8.38,4.19,16.75.73,21-1.7l1.4-8.74H190l1.34,8.34A28.5,28.5,0,0,1,211.22,109.31Z"/><path class="cls-33" d="M195.53,133.35h0l.87,5.41.19,1.19h30.46l1-6.6h0l2.45-15.3,1.67-10.44c-4.25,2.43-12.62,5.89-21,1.7a28.5,28.5,0,0,0-19.87-2.1l1.75,11Z"/><path class="cls-34" d="M195.53,133.35h0l.87,5.41.19,1.19h30.46l1-6.6h0l2.45-15.3,1.67-10.44c-4.25,2.43-12.62,5.89-21,1.7a28.5,28.5,0,0,0-19.87-2.1l1.75,11Z"/><path class="cls-35" d="M133.7,70.7h-22a2.36,2.36,0,0,0-2.36,2.36V95a2.36,2.36,0,0,0,2.36,2.36h22A2.36,2.36,0,0,0,136.06,95v-22A2.36,2.36,0,0,0,133.7,70.7ZM134,93.29a2,2,0,0,1-2,2H113.47a2,2,0,0,1-2-2V74.78a2,2,0,0,1,2-2H132a2,2,0,0,1,2,2Z"/><rect class="cls-35" x="111.38" y="72.7" width="22.68" height="22.68" rx="2.01" ry="2.01"/><rect class="cls-36" x="103.97" y="101.05" width="52" height="0.3"/><rect class="cls-37" x="146.97" y="94.7" width="5.09" height="2.68" rx="0.33" ry="0.33"/><rect class="cls-37" x="146.97" y="91.2" width="5.09" height="2.68" rx="0.33" ry="0.33"/><rect class="cls-37" x="146.97" y="87.7" width="5.09" height="2.68" rx="0.33" ry="0.33"/><rect class="cls-38" x="139.97" y="94.7" width="5.09" height="2.68" rx="0.33" ry="0.33"/><rect class="cls-38" x="139.97" y="91.2" width="5.09" height="2.68" rx="0.33" ry="0.33"/><rect class="cls-38" x="139.97" y="87.7" width="5.09" height="2.68" rx="0.33" ry="0.33"/><rect class="cls-37" x="146.97" y="84.2" width="5.09" height="2.68" rx="0.33" ry="0.33"/><rect class="cls-37" x="146.97" y="80.7" width="5.09" height="2.68" rx="0.33" ry="0.33"/><rect class="cls-37" x="146.97" y="77.2" width="5.09" height="2.68" rx="0.33" ry="0.33"/><rect class="cls-37" x="146.97" y="73.7" width="5.09" height="2.68" rx="0.33" ry="0.33"/><rect class="cls-39" x="146.18" y="104.7" width="5.68" height="5.68" rx="2.84" ry="2.84"/><path class="cls-40" d="M129.61,79.18a1.35,1.35,0,0,0-1.35,1.35h0a1.42,1.42,0,0,0,.11.55l-4.13,3.26a1.34,1.34,0,0,0-.63-.16,1.37,1.37,0,0,0-1.06.52L118,83.41a1.35,1.35,0,0,0-2.7.12h0a1.35,1.35,0,0,0,1.35,1.36,1.34,1.34,0,0,0,1.06-.52l4.6,1.29a1.35,1.35,0,0,0,2.7-.13h0a1.26,1.26,0,0,0-.08-.43l4.2-3.31a1.5,1.5,0,0,0,.52.1A1.36,1.36,0,0,0,131,80.53h0A1.36,1.36,0,0,0,129.61,79.18Z"/></g></g></svg>