<svg xmlns="http://www.w3.org/2000/svg" xmlns:xlink="http://www.w3.org/1999/xlink" viewBox="0 0 272 233"><defs><style>.cls-1,.cls-24,.cls-36{fill:#fff;}.cls-2{fill:url(#未命名的渐变_617);}.cls-3{fill:url(#未命名的渐变_617-2);}.cls-4{fill:#dfe8ef;}.cls-5,.cls-6{fill:none;stroke:#dfe8ef;stroke-linecap:round;stroke-linejoin:round;stroke-width:2px;}.cls-6{stroke-dasharray:4.75 5.69;}.cls-7{fill:url(#未命名的渐变_637);}.cls-8{fill:url(#未命名的渐变_637-2);}.cls-9{fill:url(#未命名的渐变_637-3);}.cls-10{fill:url(#未命名的渐变_442);}.cls-11{fill:url(#未命名的渐变_454);}.cls-12{fill:url(#未命名的渐变_38);}.cls-13{fill:url(#未命名的渐变_70);}.cls-14{fill:url(#未命名的渐变_58);}.cls-15{opacity:0.78;fill:url(#未命名的渐变_90);}.cls-16{fill:url(#未命名的渐变_183);}.cls-17{fill:url(#未命名的渐变_183-2);}.cls-18{fill:url(#未命名的渐变_183-3);}.cls-19{fill:url(#未命名的渐变_510);}.cls-20{fill:url(#未命名的渐变_536);}.cls-21{fill:#8ac5ff;}.cls-22{fill:url(#未命名的渐变_583);}.cls-23{fill:url(#未命名的渐变_588);}.cls-24{font-size:4.61px;font-family:STYuanti-SC-Bold, Yuanti SC;font-weight:700;}.cls-25{fill:#f1c17e;}.cls-26{fill:#a98dd1;}.cls-27{fill:#f3cb90;}.cls-28{fill:#f3b8e8;}.cls-29{fill:#9d7fcb;}.cls-30{fill:#7cddcc;}.cls-31{fill:#f6cbbe;}.cls-32{fill:#f8d8d2;}.cls-33{fill:#f0a1af;}.cls-34{fill:#413e4e;}.cls-35{fill:#7aabf9;opacity:0.48;}.cls-36{opacity:0.5;}</style><linearGradient id="未命名的渐变_617" x1="161.76" y1="57.36" x2="161.76" y2="6" gradientUnits="userSpaceOnUse"><stop offset="0" stop-color="#95f0b6"/><stop offset="1" stop-color="#71d9ff"/></linearGradient><linearGradient id="未命名的渐变_617-2" x1="102.48" y1="92.71" x2="102.48" y2="16.23" xlink:href="#未命名的渐变_617"/><linearGradient id="未命名的渐变_637" x1="196.92" y1="195.81" x2="213.46" y2="195.81" gradientUnits="userSpaceOnUse"><stop offset="0" stop-color="#eabaff"/><stop offset="1" stop-color="#ffc5c4"/></linearGradient><linearGradient id="未命名的渐变_637-2" x1="-11592.08" y1="37.38" x2="-11575.54" y2="37.38" gradientTransform="matrix(1, 0, 0, -1, 11629.03, 74.76)" xlink:href="#未命名的渐变_637"/><linearGradient id="未命名的渐变_637-3" x1="-11592.08" y1="46.2" x2="-11555.09" y2="46.2" gradientTransform="matrix(1, 0, 0, -1, 11608.67, 92.41)" xlink:href="#未命名的渐变_637"/><linearGradient id="未命名的渐变_442" x1="147.82" y1="65.21" x2="147.82" y2="184.23" gradientUnits="userSpaceOnUse"><stop offset="0" stop-color="#7abdff"/><stop offset="1" stop-color="#8a7bff"/></linearGradient><linearGradient id="未命名的渐变_454" x1="130.88" y1="74" x2="130.88" y2="176.47" gradientUnits="userSpaceOnUse"><stop offset="0" stop-color="#d6ebff"/><stop offset="1" stop-color="#dbd6ff"/></linearGradient><linearGradient id="未命名的渐变_38" x1="58.89" y1="74" x2="58.89" y2="176.47" gradientUnits="userSpaceOnUse"><stop offset="0" stop-color="#436bb0"/><stop offset="1" stop-color="#5d33a1"/></linearGradient><linearGradient id="未命名的渐变_70" x1="220.37" y1="74" x2="220.37" y2="176.47" gradientUnits="userSpaceOnUse"><stop offset="0" stop-color="#e6f3ff"/><stop offset="1" stop-color="#e6e3ff"/></linearGradient><linearGradient id="未命名的渐变_58" x1="220.43" y1="75" x2="220.43" y2="112.54" gradientUnits="userSpaceOnUse"><stop offset="0" stop-color="#9fc1fc"/><stop offset="1" stop-color="#7d78e6"/></linearGradient><linearGradient id="未命名的渐变_90" x1="198.14" y1="168.25" x2="242.73" y2="168.25" gradientUnits="userSpaceOnUse"><stop offset="0" stop-color="#fff"/><stop offset="1" stop-color="#f8f7ff"/></linearGradient><linearGradient id="未命名的渐变_183" x1="229.4" y1="155.03" x2="229.4" y2="176.22" xlink:href="#未命名的渐变_70"/><linearGradient id="未命名的渐变_183-2" x1="212.4" y1="155.03" x2="212.4" y2="176.22" xlink:href="#未命名的渐变_70"/><linearGradient id="未命名的渐变_183-3" x1="203.5" y1="155.28" x2="203.5" y2="176.47" xlink:href="#未命名的渐变_70"/><linearGradient id="未命名的渐变_510" x1="130.88" y1="84.54" x2="130.88" y2="182.19" gradientUnits="userSpaceOnUse"><stop offset="0" stop-color="#6a9ef7"/><stop offset="1" stop-color="#9360e6"/></linearGradient><linearGradient id="未命名的渐变_536" x1="76.26" y1="84.54" x2="76.26" y2="182.19" gradientUnits="userSpaceOnUse"><stop offset="0" stop-color="#5c93f2"/><stop offset="1" stop-color="#864ae8"/></linearGradient><linearGradient id="未命名的渐变_583" x1="175.32" y1="157.21" x2="175.32" y2="168.47" gradientUnits="userSpaceOnUse"><stop offset="0" stop-color="#ffaa3f"/><stop offset="1" stop-color="#d565ca"/></linearGradient><linearGradient id="未命名的渐变_588" x1="175.32" y1="158.17" x2="175.32" y2="167.47" gradientUnits="userSpaceOnUse"><stop offset="0" stop-color="#ffe574"/><stop offset="1" stop-color="#ff87b7"/></linearGradient></defs><title>上课</title><g id="图层_2" data-name="图层 2"><g id="图层_1-2" data-name="图层 1"><rect class="cls-1" width="265" height="233"/><path class="cls-2" d="M185.24,20.32c-.5-.25-6.41,2-7.64,1.14a18.5,18.5,0,0,0-2.85-3.31c-.52-1.45,2.67-6.91,2.49-7.41s-6.1-3.56-6.68-3.38-3.12,6-4.6,6.18a18.59,18.59,0,0,0-4.35-.47l-.36,0c-1.4-.6-3.05-6.77-3.53-7s-6.85,1.78-7.12,2.31,1.93,6.16,1.18,7.52a1.54,1.54,0,0,0-.29.27,18.74,18.74,0,0,0-3.7,3.15c-1.52.45-6.92-2.66-7.42-2.49s-3.58,6.07-3.39,6.64,6.88,3.5,6.17,4.89l.11-.06a18.7,18.7,0,0,0-.36,4.62c-1,1.36-6.73,2.89-7,3.35s1.78,6.81,2.32,7.08,6.44-2,7.65-1.13a18.83,18.83,0,0,0,3.64,4.11c0,1.88-2.7,6.52-2.54,7s6.1,3.56,6.67,3.37,3.52-6.84,4.92-6.13v0a18.71,18.71,0,0,0,4.91.21c1.29,1.48,2.65,6.44,3.08,6.65s6.85-1.78,7.12-2.31-2-6.26-1.16-7.55a19.09,19.09,0,0,0,3.58-3.18c1.89,0,6.55,2.69,7,2.53s3.57-6.07,3.38-6.64-5.54-2.9-6.15-4.4a18.49,18.49,0,0,0,.38-5.21c1.3-1.31,6.59-2.74,6.81-3.18S185.78,20.59,185.24,20.32ZM164.48,40.08a8.7,8.7,0,1,1,5.6-11A8.74,8.74,0,0,1,164.48,40.08Z"/><path class="cls-3" d="M129.33,47.2a27.44,27.44,0,0,0-2.47-5.91c-.06-2.25,6.88-8.42,6.87-9.21s-6.89-7.72-7.77-7.72-7.08,6.89-9.25,6.53a27.89,27.89,0,0,0-5.86-2.63c-.13-.07-.3-.14-.47-.21-1.69-1.47-1.16-10.82-1.73-11.37s-10.36-.62-11,0-.13,9.45-1.79,11a2.38,2.38,0,0,0-.53.25,27.63,27.63,0,0,0-6.61,2.72c-2.32-.05-8.43-6.84-9.21-6.82s-7.77,6.84-7.77,7.72,8,8,6.38,9.6l.18,0a27.12,27.12,0,0,0-2.61,6.28c-2,1.45-10.71,1-11.24,1.53s-.62,10.3,0,10.92,9.9.1,11.18,1.88a27.36,27.36,0,0,0,3.21,7.38c-.91,2.61-6.76,7.87-6.75,8.59s6.89,7.72,7.77,7.72,8-8,9.66-6.34v0a27.91,27.91,0,0,0,6.75,2.52c1.12,2.64.75,10.17,1.26,10.66s10.36.62,11,0,.12-9.61,1.83-11a27.53,27.53,0,0,0,6.45-2.81c2.62.91,7.91,6.72,8.63,6.7s7.77-6.84,7.77-7.72-6.4-6.56-6.57-8.92a27.52,27.52,0,0,0,2.92-7.1C132,60.11,140,60.51,140.51,60s.62-10.3,0-10.92S130.64,49,129.33,47.2Zm-26.83,20a12.75,12.75,0,1,1,12.82-12.75A12.79,12.79,0,0,1,102.5,67.24Z"/><circle class="cls-4" cx="28" cy="176" r="5"/><line class="cls-5" x1="27.77" y1="172.55" x2="27.77" y2="175.05"/><path class="cls-6" d="M27.77,180.75v6.49A14.76,14.76,0,0,0,42.53,202H72.65"/><line class="cls-5" x1="75.5" y1="202" x2="78" y2="202"/><circle class="cls-4" cx="267" cy="73" r="5"/><line class="cls-5" x1="267.23" y1="76.45" x2="267.23" y2="73.95"/><path class="cls-6" d="M267.23,68.25V61.76A14.76,14.76,0,0,0,252.47,47H222.35"/><line class="cls-5" x1="219.5" y1="47" x2="217" y2="47"/><rect class="cls-7" x="196.92" y="193.43" width="16.63" height="4.76" rx="2.38" ry="2.38"/><rect class="cls-8" x="36.95" y="35" width="16.63" height="4.76" rx="2.38" ry="2.38" transform="translate(90.53 74.76) rotate(180)"/><rect class="cls-9" x="16.59" y="43.82" width="36.98" height="4.76" rx="2.38" ry="2.38" transform="translate(70.17 92.41) rotate(180)"/><rect class="cls-10" x="43" y="63.01" width="209.64" height="120.99" rx="4.03" ry="4.03"/><rect class="cls-11" x="66.88" y="74" width="128" height="101" rx="5" ry="5"/><rect class="cls-12" x="52.79" y="74" width="12.21" height="101" rx="1.54" ry="1.54"/><rect class="cls-13" x="196.87" y="74" width="47" height="101" rx="3.03" ry="3.03"/><rect class="cls-14" x="198.14" y="75" width="44.59" height="37" rx="1.79" ry="1.79"/><rect class="cls-15" x="198.14" y="163.25" width="44.59" height="10" rx="0.93" ry="0.93"/><rect class="cls-16" x="218" y="164.75" width="22.79" height="7" rx="3.43" ry="3.43"/><rect class="cls-17" x="208.9" y="164.75" width="7" height="7" rx="3.5" ry="3.5"/><rect class="cls-18" x="200" y="165" width="7" height="7" rx="3.5" ry="3.5"/><path class="cls-19" d="M187.36,84.77H74.4a4.48,4.48,0,0,0-4.61,4.35v78.75a4.48,4.48,0,0,0,4.61,4.35h113a4.48,4.48,0,0,0,4.61-4.35V89.12A4.48,4.48,0,0,0,187.36,84.77Z"/><path class="cls-20" d="M82.84,84.77H74.28a4.48,4.48,0,0,0-4.61,4.35v78.75a4.48,4.48,0,0,0,4.61,4.35h8.56Z"/><rect class="cls-21" x="86.44" y="93.16" width="77.86" height="3.59" rx="1.8" ry="1.8"/><rect class="cls-21" x="74.46" y="93.16" width="3.59" height="3.59" rx="1.8" ry="1.8"/><rect class="cls-21" x="74.46" y="100.34" width="3.59" height="3.59" rx="1.8" ry="1.8"/><rect class="cls-21" x="74.46" y="121.91" width="3.59" height="3.59" rx="1.8" ry="1.8"/><rect class="cls-21" x="74.46" y="114.72" width="3.59" height="3.59" rx="1.8" ry="1.8"/><rect class="cls-21" x="74.46" y="107.53" width="3.59" height="3.59" rx="1.8" ry="1.8"/><rect class="cls-21" x="86.44" y="100.34" width="35.94" height="3.59" rx="1.8" ry="1.8"/><rect class="cls-21" x="86.44" y="121.91" width="45.52" height="3.59" rx="1.8" ry="1.8"/><rect class="cls-22" x="161.58" y="157" width="27.47" height="11.45" rx="5.73" ry="5.73"/><rect class="cls-23" x="162.73" y="158" width="25.18" height="9.45" rx="4.73" ry="4.73"/><text class="cls-24" transform="translate(172.89 163.7)">运行</text><path class="cls-1" d="M168.79,160.64l2.56,1.41a.53.53,0,0,1,0,.93l-2.56,1.41a.53.53,0,0,1-.79-.46v-2.82A.53.53,0,0,1,168.79,160.64Z"/><path class="cls-25" d="M205.28,84.48a2.54,2.54,0,0,1-.66,1.77.71.71,0,0,0,.09,1A4.82,4.82,0,0,0,209,88l2.12-3.37C209.85,81.09,205.28,81.47,205.28,84.48Z"/><path class="cls-26" d="M213.11,84.51a2.22,2.22,0,0,0-3.2.07,14.67,14.67,0,0,0-1.62,2.12,2.22,2.22,0,0,0,.31,2.75l.44.44Z"/><path class="cls-27" d="M231.43,105.35c.7,3.18-5,4.49-5,4.49H214.73s-5.71-1.31-5-4.49c1.05-4.84-1.53-4.1-1.53-11a12.2,12.2,0,0,1,.85-4.49A12.38,12.38,0,0,1,233,94.38C233,101.25,230.39,100.51,231.43,105.35Z"/><path class="cls-25" d="M212,92.58c0-3.65,1.89-7,4.33-9.83a12,12,0,0,0-3.23,1.76A12.43,12.43,0,0,0,209,89.89a12.2,12.2,0,0,0-.85,4.49c0,6.87,2.58,6.13,1.53,11-.7,3.18,5,4.49,5,4.49H225.3C217.84,109,212,101.58,212,92.58Z"/><path class="cls-26" d="M227.75,106.1a8,8,0,0,1,2.11,5.9h-4.25l-1.18-4Z"/><path class="cls-28" d="M218.32,112h4.52l1.59-4-1.59-5.73h-4.52L216.73,108Z"/><path class="cls-26" d="M213.41,106.1a8,8,0,0,0-2.11,5.9h4.24l1.19-4Z"/><path class="cls-29" d="M227.75,106.1,224.43,108l1.18,4h1.81a7.94,7.94,0,0,1,1.44-4.35A5.81,5.81,0,0,0,227.75,106.1Z"/><path class="cls-30" d="M227.62,104.26l-2-2h-2.77V112h2.77a9.88,9.88,0,0,1,2.14-5.9A1.39,1.39,0,0,0,227.62,104.26Z"/><path class="cls-29" d="M212.29,107.65a7.86,7.86,0,0,1,1.44,4.35h1.81l1.19-4-3.32-1.87a6,6,0,0,0-1.12,1.55Z"/><path class="cls-30" d="M213.53,104.26l2-2h2.77V112h-2.78a9.88,9.88,0,0,0-2.13-5.9A1.39,1.39,0,0,1,213.53,104.26Z"/><circle class="cls-31" cx="230.77" cy="95.59" r="2.74"/><path class="cls-32" d="M230.77,94.38h0a10.18,10.18,0,0,0-.92-4.24,2.28,2.28,0,0,0-2.65-1.27,29.21,29.21,0,0,1-13.24,0,2.28,2.28,0,0,0-2.64,1.25,10.1,10.1,0,0,0-.94,4.26,10.2,10.2,0,1,0,20.39,0h0Z"/><path class="cls-31" d="M214.84,102.8A19.39,19.39,0,0,1,212,92.58a11.5,11.5,0,0,1,.61-3.65,2.23,2.23,0,0,0-1.3,1.19,9.67,9.67,0,0,0-.82,2.74h-.12a2.74,2.74,0,0,0,0,5.48,1.57,1.57,0,0,0,.74-.15,10.3,10.3,0,0,0,3.72,4.62Z"/><ellipse class="cls-33" cx="214.17" cy="96.54" rx="2.37" ry="1.88"/><ellipse class="cls-33" cx="226.99" cy="96.54" rx="2.37" ry="1.88"/><path class="cls-34" d="M215.55,95.18a.47.47,0,0,1-.46-.46v-1a.47.47,0,0,1,.46-.46.46.46,0,0,1,.45.46v1A.46.46,0,0,1,215.55,95.18Z"/><path class="cls-34" d="M225.61,95.18a.46.46,0,0,1-.45-.46v-1a.45.45,0,1,1,.9,0v1A.46.46,0,0,1,225.61,95.18Z"/><path class="cls-34" d="M220.58,95.75a2.22,2.22,0,0,1-1.67-.76.47.47,0,0,1,0-.64.46.46,0,0,1,.64.05,1.33,1.33,0,0,0,1,.45,1.31,1.31,0,0,0,1-.45.45.45,0,0,1,.69.59,2.24,2.24,0,0,1-1.67.76Z"/><rect class="cls-35" x="200" y="116" width="40" height="2" rx="1" ry="1"/><rect class="cls-35" x="200" y="120.25" width="28" height="2" rx="1" ry="1"/><rect class="cls-35" x="200" y="133" width="28" height="2" rx="1" ry="1"/><rect class="cls-35" x="200" y="124.5" width="40" height="2" rx="1" ry="1"/><rect class="cls-35" x="200" y="128.75" width="18" height="2" rx="1" ry="1"/><path class="cls-36" d="M57,163l1.49,1.49a.69.69,0,0,1,0,1L57,167a.71.71,0,0,0,0,1h0a.7.7,0,0,0,1,0l2-2,.5-.5a.71.71,0,0,0,0-1L60,164l-2-2a.7.7,0,0,0-1,0h0A.71.71,0,0,0,57,163Z"/></g></g></svg>